<?xml version="1.0" standalone="no"?><!DOCTYPE svg PUBLIC "-//W3C//DTD SVG 1.1//EN" "http://www.w3.org/Graphics/SVG/1.1/DTD/svg11.dtd"><svg t="1555556192419" class="icon" style="" viewBox="0 0 1024 1024" version="1.1" xmlns="http://www.w3.org/2000/svg" p-id="770" xmlns:xlink="http://www.w3.org/1999/xlink" width="200" height="200"><defs><style type="text/css"></style></defs><path d="M752.28 161.77h-337.3c-122.62 0-222.95 100.33-222.95 222.95v399.22c0 51.09 41.8 92.9 92.9 92.9h338.34c122.05 0 221.9-99.86 221.9-221.9V254.67c0.01-51.1-41.8-92.9-92.89-92.9zM545 677.1H351.38c-13.46 0-24.36-10.89-24.36-24.36 0-13.46 10.89-24.36 24.36-24.36H545c13.46 0 24.36 10.89 24.36 24.36-0.01 13.47-10.9 24.36-24.36 24.36z m129.08-136.05h-322.7c-13.46 0-24.36-10.89-24.36-24.36 0-13.46 10.89-24.36 24.36-24.36h322.7c13.46 0 24.36 10.89 24.36 24.36 0 13.46-10.89 24.36-24.36 24.36z m0-136.03h-322.7c-13.46 0-24.36-10.89-24.36-24.36s10.89-24.36 24.36-24.36h322.7c13.46 0 24.36 10.89 24.36 24.36s-10.89 24.36-24.36 24.36z" p-id="771"></path></svg>