<?xml version="1.0" encoding="UTF-8"?>
<!-- Generator: Adobe Illustrator 19.1.0, SVG Export Plug-In . SVG Version: 6.00 Build 0)  -->
<svg version="1.1" id="Layer_1" xmlns="http://www.w3.org/2000/svg" xmlns:xlink="http://www.w3.org/1999/xlink" x="0px" y="0px" viewBox="0 0 600 120" style="enable-background:new 0 0 600 120;" xml:space="preserve">
<style type="text/css">
	.st0{fill-rule:evenodd;clip-rule:evenodd;}
	.st1{clip-path:url(#SVGID_2_);fill-rule:evenodd;clip-rule:evenodd;}
</style>
<g>
	<path class="st0" d="M374.7,39.2h-13.9v39.4h13.9V58.2c0-4.9,1.6-9.2,7.3-9.2c7,0,6.3,6.6,6.3,10.4v19.1h14.1V54.3   c0-9.7-4.3-16.3-14.9-16.3c-5.5,0-9.5,1.6-12.7,6.3h-0.2V39.2L374.7,39.2L374.7,39.2L374.7,39.2z"/>
	<path class="st0" d="M326.9,39.2H313v39.4h13.9V58.2c0-4.9,1.6-9.2,7.3-9.2c6.9,0,6.3,6.6,6.3,10.4v19.1h14.1V54.3   c0-9.7-4.3-16.3-14.9-16.3c-5.5,0-9.5,1.6-12.7,6.3h-0.2V39.2L326.9,39.2L326.9,39.2L326.9,39.2z"/>
	<path class="st0" d="M285.1,50.2c5.7,0,9,4,9,8.9c0,5.1-3.3,8.9-9,8.9c-5.7,0-9-3.8-9-8.9C276.1,54.1,279.4,50.2,285.1,50.2   L285.1,50.2L285.1,50.2L285.1,50.2z M307.3,39.2h-13.9V43c-3-3.3-7.8-5.1-12.2-5.1c-11.7,0-19.8,9.6-19.8,21   c0,11.3,8.2,21.1,19.9,21.1c4.6,0,9.4-1.7,11.9-5.7h0.2v4.3h13.9V39.2L307.3,39.2L307.3,39.2L307.3,39.2z"/>
	<path class="st0" d="M205.6,39.2h-13.9v39.4h13.9V59.8c0-4.3,0-11.1,6.2-11.1c6.3,0,6.3,6.8,6.3,11.1v18.8h13.9V59.8   c0-4.6,0.3-10.8,6.8-10.8c5.9,0,5.7,6.8,5.7,10.8v18.8h13.9v-25c0-9.2-3.3-15.7-13.5-15.7c-5.4,0-10.6,2.5-13.3,7.6   c-2.8-5.2-7.8-7.6-13.5-7.6c-5,0-9.2,1.9-12.5,6.2h-0.2V39.2L205.6,39.2L205.6,39.2L205.6,39.2z"/>
	<path class="st0" d="M144.2,39.2V63c0,13,9.2,17.1,21.1,17.1c11.9,0,21.1-4.1,21.1-17.1V39.2h-14.1v21.1c0,5-1.3,8.5-7,8.5   c-5.8,0-7-3.5-7-8.5V39.2H144.2L144.2,39.2L144.2,39.2L144.2,39.2z"/>
	<path class="st0" d="M115.4,50.2c5.7,0,9,4,9,8.9c0,5.1-3.3,8.9-9,8.9c-5.7,0-9-3.8-9-8.9C106.4,54.1,109.7,50.2,115.4,50.2   L115.4,50.2L115.4,50.2L115.4,50.2z M137.9,39.2H124V43c-3-3.3-7.8-5.1-12.2-5.1C100.1,38,92,47.6,92,59c0,11.3,8.2,21.1,19.9,21.1   c4.6,0,9.4-1.7,11.9-5.7h0.2v4.3h13.9V39.2L137.9,39.2L137.9,39.2L137.9,39.2z"/>
	<path class="st0" d="M76.9,39.2H63v39.4h13.9V62.8c0-6.8,1.9-11.9,9.7-11.9c2.2,0,4.1,0.2,6,1.3V38.8h-2.7c-5.5,0-10.1,2-12.8,7   h-0.2V39.2L76.9,39.2L76.9,39.2L76.9,39.2z"/>
	<g>
		<defs>
			<rect id="SVGID_1_" x="0" y="27.4" width="600" height="74.6"/>
		</defs>
		<clipPath id="SVGID_2_">
			<use xlink:href="#SVGID_1_" style="overflow:visible;"/>
		</clipPath>
		<polygon class="st1" points="54.3,50.8 62.2,50.8 62.2,39.2 54.3,39.2 54.3,27.4 40.4,27.4 40.4,39.2 35.8,39.2 35.8,50.8     40.4,50.8 40.4,78.6 54.3,78.6 54.3,50.8 54.3,50.8 54.3,50.8   "/>
		<path class="st1" d="M33.4,40.5c-4.1-1.9-8.5-2.5-13-2.5C11.7,38,3,42.2,3,51.9c0,7.1,4.4,9.3,8.7,10.5c4.4,1.1,8.9,1.2,8.9,4.4    c0,2.1-2.7,3-4.4,3c-3.5,0-8.2-2.1-11.1-4.1L0,75.5c4.7,3,10.3,4.6,16,4.6c9.2,0,18.5-4.3,18.5-14.7c0-7.3-4.9-10.4-11.4-11.7    c-1.9-0.3-6.3-0.8-6.3-3.5c0-1.9,2.8-2.7,4.4-2.7c2.4,0,5.4,0.8,7.5,1.9L33.4,40.5L33.4,40.5L33.4,40.5L33.4,40.5z"/>
	</g>
	<path d="M413.5,58.5c0,9.1,6,17.4,15.7,17.4c10.2,0,15.7-8.3,15.7-17.8c0-9.2-6.3-16.5-15.9-16.5C419.8,41.6,413.5,49.9,413.5,58.5   L413.5,58.5z M448.5,76.8c0,6.1-0.2,11.6-4,16.9c-3.7,5.1-9.6,7.7-15.9,7.7c-10.4,0-19-6.1-19.7-17.1h3.9   c0.4,8.3,7.4,13.4,15.4,13.4c5,0,9.8-1.7,12.8-5.9c3.1-4.6,3.5-9.7,3.5-15.1v-4.9h-0.2c-3.5,4.7-9.5,7.8-15.5,7.8   c-11.6,0-19.3-9.7-19.3-20.9c0-11.5,8.2-20.7,19.8-20.7c6.5,0,11.3,2.8,15,7.8h0.2v-6.9h3.9V76.8L448.5,76.8z"/>
	<path d="M461.7,44h0.2c1.6-3.6,4.4-6,8.6-6c1.6,0,2.8,0.3,4.2,0.9l-2.1,3.4c-0.9-0.5-1.7-0.8-2.8-0.8c-8.7,0-8.2,10.9-8.2,16.7   v20.3h-3.9V38.8h3.9V44L461.7,44z"/>
	<path d="M478.9,58.8c0,9,7.2,17.1,16.5,17.1c9.7,0,17.3-7.4,17.3-17.1c0-9.8-7.5-17.2-17.3-17.2C486,41.6,478.9,49.6,478.9,58.8   L478.9,58.8z M516.7,58.7c0,11.8-9.2,20.8-20.9,20.8c-11.5,0-20.7-9.4-20.7-20.7c0-11.5,9.1-20.9,20.7-20.9   C507.4,38,516.7,46.9,516.7,58.7L516.7,58.7z"/>
	<path d="M552.3,38.8v23.9c0,4,0.1,8.1-2.4,11.5c-2.8,3.6-7.4,5.3-11.9,5.3c-4.5,0-9.1-1.7-11.9-5.3c-2.5-3.4-2.4-7.4-2.4-11.5V38.8   h3.9v22.5c0,7.7,0.9,14.6,10.4,14.6c9.6,0,10.4-6.9,10.4-14.6V38.8H552.3L552.3,38.8z"/>
	<path d="M564.8,59.6c0,9.3,6.3,16.3,15.9,16.3c9.3,0,15.5-7.8,15.5-16.7c0-9.1-5.9-17.6-15.7-17.6C570.3,41.6,564.8,50,564.8,59.6   L564.8,59.6z M565,46h0.2c2.9-5.1,9.3-8,15.2-8c12.2,0,19.6,9.5,19.6,21.1c0,11.6-7.5,20.4-19.5,20.4c-6.1,0-12.1-2.7-15.3-7.8H565   v30.2h-3.9V38.8h3.9V46L565,46z"/>
</g>
</svg>